# xmcd CD database file
#
# Track frame offsets:
#	150
#	18107
#	39447
#
# Disc length: 763 seconds
#
# Revision: 1
# Processed by: cddbd v1.5PL3 Copyright (c) Steve Scherf et al.
# Submitted via: CDex 1.51
#
DISCID=1502f903
DTITLE=相川七瀬 - LIKE A HARD RAIN
DYEAR=1996
DGENRE=JPop
TTITLE0=LIKE A HARD RAIN
TTITLE1=最後の夜
TTITLE2=LIKE A HARD RAIN  original karaoke
EXTD=YEAR: 1996
EXTT0=
EXTT1=
EXTT2=
PLAYORDER=
